<svg  viewBox="0 0 24 24" fill="none" xmlns="http://www.w3.org/2000/svg">
<path opacity="0.3" d="M22 12C22 6.47715 17.5228 2 12 2C6.47715 2 2 6.47715 2 12C2 17.5228 6.47715 22 12 22C17.5228 22 22 17.5228 22 12Z" fill="currentColor"/>
<path d="M11.276 13.654C11.276 13.2713 11.3367 12.9447 11.458 12.674C11.5887 12.394 11.738 12.1653 11.906 11.988C12.0833 11.8107 12.3167 11.61 12.606 11.386C12.942 11.1247 13.1893 10.896 13.348 10.7C13.5067 10.4947 13.586 10.2427 13.586 9.94403C13.586 9.63603 13.4833 9.35603 13.278 9.10403C13.082 8.8427 12.69 8.71203 12.102 8.71203C11.486 8.71203 11.066 8.86603 10.842 9.17403C10.6273 9.48203 10.52 9.8227 10.52 10.196L10.534 10.574H8.826C8.78867 10.3967 8.77 10.2333 8.77 10.084C8.77 9.55203 8.90067 9.07136 9.162 8.64203C9.42333 8.20336 9.81067 7.85803 10.324 7.60603C10.8467 7.35403 11.4813 7.22803 12.228 7.22803C13.1987 7.22803 13.9687 7.44736 14.538 7.88603C15.1073 8.31536 15.392 8.9267 15.392 9.72003C15.392 10.168 15.322 10.5507 15.182 10.868C15.042 11.1853 14.874 11.442 14.678 11.638C14.482 11.834 14.2253 12.0533 13.908 12.296C13.544 12.576 13.2733 12.8233 13.096 13.038C12.928 13.2527 12.844 13.528 12.844 13.864V14.326H11.276V13.654ZM11.192 15.222H12.928V17H11.192V15.222Z" fill="currentColor"/>
</svg>
