<svg  viewBox="0 0 24 24" fill="none" xmlns="http://www.w3.org/2000/svg">
<path opacity="0.3" d="M8.75 11.25H18.75C19.3023 11.25 19.75 11.6977 19.75 12.25C19.75 12.8023 19.3023 13.25 18.75 13.25H8.75C8.19771 13.25 7.75 12.8023 7.75 12.25C7.75 11.6977 8.19771 11.25 8.75 11.25Z" fill="currentColor"/>
<path d="M17.8813 11.9427L16.1256 10.4797C15.6554 10.0879 15.6232 9.37677 16.056 8.94397C16.4457 8.55427 17.0716 8.53587 17.4836 8.90207L20.4092 11.5026C20.8567 11.9004 20.8567 12.5996 20.4092 12.9974L17.4836 15.5979C17.0716 15.9641 16.4457 15.9457 16.056 15.556C15.6232 15.1231 15.6554 14.4121 16.1256 14.0203L17.8813 12.5573C18.0732 12.3974 18.0732 12.1026 17.8813 11.9427Z" fill="currentColor"/>
<path d="M15.75 5.25V6.25C15.75 6.8023 15.3023 7.25 14.75 7.25C14.1977 7.25 13.75 6.8023 13.75 6.25C13.75 5.6977 13.3023 5.25 12.75 5.25H5.75C5.19771 5.25 4.75 5.6977 4.75 6.25L4.75 18.25C4.75 18.8023 5.19771 19.25 5.75 19.25H12.75C13.3023 19.25 13.75 18.8023 13.75 18.25C13.75 17.6977 14.1977 17.25 14.75 17.25C15.3023 17.25 15.75 17.6977 15.75 18.25V19.25C15.75 20.3546 14.8546 21.25 13.75 21.25H4.75C3.64543 21.25 2.75 20.3546 2.75 19.25L2.75 5.25C2.75 4.1454 3.64543 3.25 4.75 3.25H13.75C14.8546 3.25 15.75 4.1454 15.75 5.25Z" fill="#C4C4C4"/>
</svg>
