<svg viewBox="0 0 24 24" fill="none" xmlns="http://www.w3.org/2000/svg">
    <path fill-rule="evenodd" clip-rule="evenodd" d="M7.83498 4.00004C8.22876 5.21248 9.94385 6.12504 12 6.12504C14.0561 6.12504 15.7712 5.21248 16.165 4.00004H17.2724C17.3447 3.99207 17.4181 3.99195 17.4913 4.00004H17.5C17.8012 4.00004 18.0713 4.13321 18.2547 4.3439L22.59 6.84691C23.0683 7.12305 23.2322 7.73464 22.956 8.21293L21.2998 11.0816C21.0236 11.5599 20.412 11.7238 19.9338 11.4477L18.5 10.6199V20C18.5 20.5523 18.0523 21 17.5 21H6.5C5.94772 21 5.5 20.5523 5.5 20V10.6205L4.06734 11.4477C3.58904 11.7238 2.97745 11.5599 2.70131 11.0816L1.04506 8.21293C0.768918 7.73464 0.932794 7.12305 1.41109 6.84691L5.74424 4.34516C5.9276 4.13375 6.19818 4.00004 6.5 4.00004H6.50979C6.58297 3.99195 6.65639 3.99207 6.72872 4.00004H7.83498Z" fill="currentColor" />
</svg>